<svg xmlns="http://www.w3.org/2000/svg" width="13.25" height="13.25" viewBox="0 0 13.25 13.25"><defs><style>.a{fill:#004af8;}</style></defs><g transform="translate(-11 -11)"><path class="a" d="M17.625,24.25a6.625,6.625,0,1,1,6.625-6.625A6.612,6.612,0,0,1,17.625,24.25Zm0-12.231a5.606,5.606,0,1,0,5.606,5.606A5.59,5.59,0,0,0,17.625,12.019Z"/><path class="a" d="M22.038,19.548A2.044,2.044,0,0,1,20,17.51a.51.51,0,0,1,1.019,0,1.019,1.019,0,1,0,2.038,0,.51.51,0,1,1,1.019,0A2.044,2.044,0,0,1,22.038,19.548Z" transform="translate(-4.413 -2.942)"/><path class="a" d="M23.567,23.019H20.51a.51.51,0,1,1,0-1.019h3.058a.51.51,0,0,1,0,1.019Z" transform="translate(-4.413 -5.394)"/><path class="a" d="M23.567,27.019H20.51a.51.51,0,1,1,0-1.019h3.058a.51.51,0,0,1,0,1.019Z" transform="translate(-4.413 -7.356)"/><path class="a" d="M23.51,26.587a.481.481,0,0,1-.51-.51V22.51a.51.51,0,1,1,1.019,0v3.567A.481.481,0,0,1,23.51,26.587Z" transform="translate(-5.885 -5.394)"/></g></svg>