<svg xmlns="http://www.w3.org/2000/svg" width="10.012" height="15.05" viewBox="0 0 10.012 15.05"><defs><style>.a{fill:#004af8;}</style></defs><g transform="translate(-4)"><path class="a" d="M9.006,10.012a5.006,5.006,0,1,1,5.006-5.006A5.021,5.021,0,0,1,9.006,10.012Zm0-8.761a3.755,3.755,0,1,0,3.755,3.755A3.766,3.766,0,0,0,9.006,1.252Z"/><path class="a" d="M12.874,19.84a.469.469,0,0,1-.313-.063l-2.816-1.69-2.816,1.69a.675.675,0,0,1-.688,0,.6.6,0,0,1-.25-.626l.751-5.695a.733.733,0,0,1,.688-.563.621.621,0,0,1,.563.688L7.43,18.026l2-1.189a.568.568,0,0,1,.626,0l2,1.189L11.5,13.583a.591.591,0,0,1,.563-.688.565.565,0,0,1,.688.563l.751,5.695a.6.6,0,0,1-.25.626C13.124,19.778,13,19.84,12.874,19.84Z" transform="translate(-0.739 -4.822)"/></g></svg>