<svg xmlns="http://www.w3.org/2000/svg" width="13.046" height="11.86" viewBox="0 0 13.046 11.86"><defs><style>.a{fill:#004af8;}</style></defs><g transform="translate(-1 -2)"><path class="a" d="M12.267,15.488H2.779A1.747,1.747,0,0,1,1,13.709V7.779A1.747,1.747,0,0,1,2.779,6h9.488a1.747,1.747,0,0,1,1.779,1.779v5.93A1.747,1.747,0,0,1,12.267,15.488Zm-9.488-8.3a.56.56,0,0,0-.593.593v5.93a.56.56,0,0,0,.593.593h9.488a.56.56,0,0,0,.593-.593V7.779a.56.56,0,0,0-.593-.593Z" transform="translate(0 -1.628)"/><path class="a" d="M12.337,13.86a.56.56,0,0,1-.593-.593V3.779a.56.56,0,0,0-.593-.593H8.779a.56.56,0,0,0-.593.593v9.488a.593.593,0,1,1-1.186,0V3.779A1.747,1.747,0,0,1,8.779,2h2.372A1.747,1.747,0,0,1,12.93,3.779v9.488A.56.56,0,0,1,12.337,13.86Z" transform="translate(-2.442)"/></g></svg>