<svg xmlns="http://www.w3.org/2000/svg" width="14.533" height="18.718" viewBox="0 0 14.533 18.718"><defs><style>.a{fill:#004af8;}</style></defs><g transform="translate(-51.8)"><path class="a" d="M65.928,2.5A4.474,4.474,0,0,0,63.647.708,12.618,12.618,0,0,0,59.067,0,10.565,10.565,0,0,0,53.49,1.21,3.8,3.8,0,0,0,52.206,2.5,2.861,2.861,0,0,0,51.8,3.95v9.227a2.943,2.943,0,0,0,2.936,2.936h.306l-1.858,2.6h2.107L55.736,18h6.658l.448.722h2.107L63.091,16.11H63.4a2.943,2.943,0,0,0,2.936-2.936V3.95A2.861,2.861,0,0,0,65.928,2.5ZM56.476,16.8l.146-.238h4.89l.146.238ZM59.028,1.363h.039a9.041,9.041,0,0,1,4.847,1,2.567,2.567,0,0,1,.843.826,1.488,1.488,0,0,1,.217.765v9.227a1.578,1.578,0,0,1-.463,1.117,1.555,1.555,0,0,1-1.114.459H54.736a1.567,1.567,0,0,1-1.576-1.576V3.95a1.491,1.491,0,0,1,.217-.762,3.155,3.155,0,0,1,1.612-1.21A11.091,11.091,0,0,1,59.028,1.363Z" transform="translate(0 0)"/><path class="a" d="M166.622,70.848H171.4a.824.824,0,1,0,0-1.648h-4.776a.824.824,0,0,0,0,1.648Z" transform="translate(-109.943 -66.737)"/><path class="a" d="M133.864,331.2a.964.964,0,1,0,.964.964A.967.967,0,0,0,133.864,331.2Z" transform="translate(-78.214 -319.414)"/><path class="a" d="M325.864,331.2a.964.964,0,1,0,.964.964A.967.967,0,0,0,325.864,331.2Z" transform="translate(-263.381 -319.414)"/><rect class="a" width="4.324" height="3.996" transform="translate(54.405 5.47)"/><rect class="a" width="4.495" height="3.996" transform="translate(59.234 5.47)"/></g></svg>