<svg xmlns="http://www.w3.org/2000/svg" width="13.147" height="12.575" viewBox="0 0 13.147 12.575"><defs><style>.a{fill:#004af8;}</style></defs><g transform="translate(0.083 1.849)"><g transform="translate(-0.083 -1.849)"><path class="a" d="M18.143,12.716h-.572a.572.572,0,1,1,0-1.143h.572a1.715,1.715,0,1,0,0-3.43h-.572a.572.572,0,1,1,0-1.143h.572a2.858,2.858,0,0,1,0,5.716Z" transform="translate(-7.855 -2.999)"/><path class="a" d="M8.431,15.574H3.858A2.83,2.83,0,0,1,1,12.716V7.572A.54.54,0,0,1,1.572,7h9.145a.54.54,0,0,1,.572.572v5.144A2.83,2.83,0,0,1,8.431,15.574ZM2.143,8.143v4.573a1.684,1.684,0,0,0,1.715,1.715H8.431a1.684,1.684,0,0,0,1.715-1.715V8.143Z" transform="translate(-1 -2.999)"/><path class="a" d="M5.572,2.858A.54.54,0,0,1,5,2.286V.572A.54.54,0,0,1,5.572,0a.54.54,0,0,1,.572.572V2.286A.54.54,0,0,1,5.572,2.858Z" transform="translate(-2.714)"/><path class="a" d="M9.572,2.858A.54.54,0,0,1,9,2.286V.572a.572.572,0,1,1,1.143,0V2.286A.54.54,0,0,1,9.572,2.858Z" transform="translate(-4.427)"/><path class="a" d="M13.572,2.858A.54.54,0,0,1,13,2.286V.572a.572.572,0,1,1,1.143,0V2.286A.54.54,0,0,1,13.572,2.858Z" transform="translate(-6.141)"/></g></g></svg>