<svg xmlns="http://www.w3.org/2000/svg" width="20" height="22" viewBox="0 0 20 22"><defs><style>.a{fill:#004af8;}</style></defs><g transform="translate(-2 -1)"><path class="a" d="M19,23H5a2.946,2.946,0,0,1-3-3V6A2.946,2.946,0,0,1,5,3H19a2.946,2.946,0,0,1,3,3V20A2.946,2.946,0,0,1,19,23ZM5,5A.945.945,0,0,0,4,6V20a.945.945,0,0,0,1,1H19a.945.945,0,0,0,1-1V6a.945.945,0,0,0-1-1Z"/><path class="a" d="M16,7a.945.945,0,0,1-1-1V2a1,1,0,0,1,2,0V6A.945.945,0,0,1,16,7Z"/><path class="a" d="M8,7A.945.945,0,0,1,7,6V2A.945.945,0,0,1,8,1,.945.945,0,0,1,9,2V6A.945.945,0,0,1,8,7Z"/><path class="a" d="M21,11H3a.945.945,0,0,1-1-1A.945.945,0,0,1,3,9H21a.945.945,0,0,1,1,1A.945.945,0,0,1,21,11Z"/></g></svg>