<svg xmlns="http://www.w3.org/2000/svg" width="13" height="13" viewBox="0 0 13 13"><defs><style>.a{fill:#0eafff;}</style></defs><g transform="translate(-1 -1)"><path class="a" d="M7.5,14h0a6.5,6.5,0,1,1,0-13h0a5.84,5.84,0,0,1,2.659.591.582.582,0,0,1-.473,1.064A5.593,5.593,0,0,0,7.5,2.182h0a5.318,5.318,0,1,0,0,10.636h0A5.3,5.3,0,0,0,12.818,7.5V6.968a.591.591,0,0,1,1.182,0V7.5A6.481,6.481,0,0,1,7.5,14Z"/><path class="a" d="M10.364,10.091a.536.536,0,0,1-.414-.177L8.177,8.141A.585.585,0,0,1,9,7.314l1.359,1.359,5.5-5.5A.585.585,0,1,1,16.686,4L10.777,9.914A.536.536,0,0,1,10.364,10.091Z" transform="translate(-2.864 -0.818)"/></g></svg>