<svg xmlns="http://www.w3.org/2000/svg" width="13.067" height="13.067" viewBox="0 0 13.067 13.067"><defs><style>.a{fill:#004af8;}</style></defs><path class="a" d="M7.534,14.067a6.534,6.534,0,1,1,6.534-6.534A6.515,6.515,0,0,1,7.534,14.067Zm0-11.879a5.346,5.346,0,1,0,5.346,5.346A5.324,5.324,0,0,0,7.534,2.188Z" transform="translate(-1 -1)"/><path class="a" d="M13.97,10.94c-.119,0-.178,0-.238-.059L11.356,9.692A.571.571,0,0,1,11,9.158V5.594a.594.594,0,0,1,1.188,0V8.8l2.019,1.01a.524.524,0,0,1,.238.772A.452.452,0,0,1,13.97,10.94Z" transform="translate(-5.06 -2.624)"/></svg>