<svg xmlns="http://www.w3.org/2000/svg" width="20.5" height="20.5" viewBox="0 0 20.5 20.5"><defs><style>.a{fill:#5f8fff;}</style></defs><path class="a" d="M20.02,8.969H18.8A8.654,8.654,0,0,0,11.531,1.7V.48a.48.48,0,0,0-.48-.48h-1.6a.48.48,0,0,0-.48.48V1.7A8.654,8.654,0,0,0,1.7,8.969H.48a.48.48,0,0,0-.48.48v1.6a.48.48,0,0,0,.48.48H1.7A8.654,8.654,0,0,0,8.969,18.8V20.02a.48.48,0,0,0,.48.48h1.6a.48.48,0,0,0,.48-.48V18.8A8.654,8.654,0,0,0,18.8,11.531H20.02a.48.48,0,0,0,.48-.48v-1.6A.48.48,0,0,0,20.02,8.969ZM11.531,16.2V14.574a.48.48,0,0,0-.48-.48h-1.6a.48.48,0,0,0-.48.48V16.2a6.092,6.092,0,0,1-4.67-4.67H5.926a.48.48,0,0,0,.48-.48v-1.6a.48.48,0,0,0-.48-.48H4.3A6.092,6.092,0,0,1,8.969,4.3V5.926a.48.48,0,0,0,.48.48h1.6a.48.48,0,0,0,.48-.48V4.3a6.092,6.092,0,0,1,4.67,4.67H14.574a.48.48,0,0,0-.48.48v1.6a.48.48,0,0,0,.48.48H16.2A6.092,6.092,0,0,1,11.531,16.2Zm0-5.951A1.281,1.281,0,1,1,10.25,8.969,1.281,1.281,0,0,1,11.531,10.25Z"/></svg>