<svg xmlns="http://www.w3.org/2000/svg" width="9.757" height="12.567" viewBox="0 0 9.757 12.567"><defs><style>.a{fill:#004af8;}</style></defs><g transform="translate(-51.8)"><path class="a" d="M61.285,1.677a3,3,0,0,0-1.531-1.2A8.471,8.471,0,0,0,56.679,0a7.093,7.093,0,0,0-3.744.812,2.548,2.548,0,0,0-.862.865,1.921,1.921,0,0,0-.272.975V8.847a1.976,1.976,0,0,0,1.971,1.971h.205l-1.247,1.749h1.414l.3-.485h4.47l.3.485h1.414l-1.247-1.751h.205a1.976,1.976,0,0,0,1.971-1.971V2.652A1.921,1.921,0,0,0,61.285,1.677Zm-6.345,9.6.1-.16H58.32l.1.16ZM56.652.915h.026a6.069,6.069,0,0,1,3.254.669,1.724,1.724,0,0,1,.566.554,1,1,0,0,1,.146.514V8.847a1.06,1.06,0,0,1-.311.75,1.044,1.044,0,0,1-.748.308H53.771a1.052,1.052,0,0,1-1.058-1.058V2.652a1,1,0,0,1,.146-.511,2.118,2.118,0,0,1,1.082-.812A7.446,7.446,0,0,1,56.652.915Z"/><path class="a" d="M166.352,70.306h3.206a.553.553,0,1,0,0-1.106h-3.206a.553.553,0,0,0,0,1.106Z" transform="translate(-111.276 -67.547)"/><path class="a" d="M133.547,331.2a.647.647,0,1,0,.647.647A.649.649,0,0,0,133.547,331.2Z" transform="translate(-79.162 -323.287)"/><path class="a" d="M325.547,331.2a.647.647,0,1,0,.647.647A.65.65,0,0,0,325.547,331.2Z" transform="translate(-266.575 -323.287)"/><rect class="a" width="2.903" height="2.683" transform="translate(53.549 3.672)"/><rect class="a" width="3.017" height="2.683" transform="translate(56.791 3.672)"/></g></svg>