<svg xmlns="http://www.w3.org/2000/svg" width="20" height="20" viewBox="0 0 20 20"><defs><style>.a{fill:#fff;}</style></defs><g transform="translate(-2 -2)"><path class="a" d="M16,22H5a2.946,2.946,0,0,1-3-3V8A2.946,2.946,0,0,1,5,5h6a.945.945,0,0,1,1,1,.945.945,0,0,1-1,1H5A.945.945,0,0,0,4,8V19a.945.945,0,0,0,1,1H16a.945.945,0,0,0,1-1V13a1,1,0,0,1,2,0v6A2.946,2.946,0,0,1,16,22Z"/><path class="a" d="M21,10a.945.945,0,0,1-1-1V4H15a.945.945,0,0,1-1-1,.945.945,0,0,1,1-1h6a.945.945,0,0,1,1,1V9A.945.945,0,0,1,21,10Z"/><path class="a" d="M10,15a.908.908,0,0,1-.7-.3.967.967,0,0,1,0-1.4l11-11a.967.967,0,0,1,1.4,0,.967.967,0,0,1,0,1.4l-11,11A.908.908,0,0,1,10,15Z"/></g></svg>