<svg xmlns="http://www.w3.org/2000/svg" width="25.513" height="24.331" viewBox="0 0 25.513 24.331"><defs><style>.a{fill:#16ca02;}.b{fill:#fff;}</style></defs><path class="a" d="M25.513,10.353C25.513,4.645,19.79,0,12.756,0S0,4.645,0,10.353c0,5.115,4.537,9.4,10.669,10.219.415.088.981.272,1.124.628a2.61,2.61,0,0,1,.041,1.168l-.181,1.092c-.055.324-.257,1.261,1.1.689S20.1,19.8,22.774,16.722h0a9.213,9.213,0,0,0,2.733-6.368"/><path class="b" d="M32.042,26h-.893a.248.248,0,0,0-.248.248V31.8a.248.248,0,0,0,.248.245h.893a.248.248,0,0,0,.248-.245V26.248A.248.248,0,0,0,32.042,26" transform="translate(-21.878 -18.409)"/><path class="b" d="M43.682,25.936h-.9a.248.248,0,0,0-.248.248V29.49L39.992,26.05l-.02-.026h0l-.018-.015H38.891a.251.251,0,0,0-.251.248v5.548a.251.251,0,0,0,.251.245h.893a.248.248,0,0,0,.248-.245V28.444l2.552,3.445a.292.292,0,0,0,.061.061h1.007a.248.248,0,0,0,.248-.245V26.158a.248.248,0,0,0-.248-.248" transform="translate(-27.358 -18.345)"/><path class="b" d="M18.155,30.679H15.723V26.258a.248.248,0,0,0-.248-.248h-.9a.248.248,0,0,0-.248.248v5.548h0a.242.242,0,0,0,.07.172h0a.26.26,0,0,0,.172.067h3.583A.248.248,0,0,0,18.4,31.8v-.876a.248.248,0,0,0-.248-.248" transform="translate(-10.146 -18.416)"/><path class="b" d="M63.583,27.4a.251.251,0,0,0,.248-.251v-.893a.248.248,0,0,0-.248-.248H60.009a.242.242,0,0,0-.172.07h0a.254.254,0,0,0-.067.172h0V31.8h0a.242.242,0,0,0,.07.169h0a.254.254,0,0,0,.172.067h3.571a.248.248,0,0,0,.248-.248v-.867a.248.248,0,0,0-.248-.248H61.151v-.94h2.432a.248.248,0,0,0,.248-.248v-.9a.248.248,0,0,0-.248-.248H61.151V27.4Z" transform="translate(-42.319 -18.416)"/></svg>