<svg xmlns="http://www.w3.org/2000/svg" width="11.391" height="13.669" viewBox="0 0 11.391 13.669"><defs><style>.a{fill:#004af8;}</style></defs><path class="a" d="M7.7,13.669a.809.809,0,0,1-.342-.114C7.183,13.441,2,9.91,2,5.7a5.7,5.7,0,0,1,11.391,0c0,4.214-5.183,7.746-5.354,7.859A.809.809,0,0,1,7.7,13.669Zm0-12.53A4.57,4.57,0,0,0,3.139,5.7c0,3.075,3.474,5.923,4.556,6.72,1.082-.8,4.556-3.645,4.556-6.72A4.57,4.57,0,0,0,7.7,1.139Z" transform="translate(-2 0)"/><path class="a" d="M10.278,10.556a2.278,2.278,0,1,1,2.278-2.278A2.285,2.285,0,0,1,10.278,10.556Zm0-3.417a1.139,1.139,0,1,0,1.139,1.139A1.142,1.142,0,0,0,10.278,7.139Z" transform="translate(-4.583 -2.583)"/></svg>