<svg xmlns="http://www.w3.org/2000/svg" width="17.4" height="17.4" viewBox="0 0 17.4 17.4"><defs><style>.a{fill:#5f8fff;}</style></defs><path class="a" d="M16.116,18.4h-.238a17.908,17.908,0,0,1-7.23-2.542,16.707,16.707,0,0,1-5.005-5.005A15.823,15.823,0,0,1,1.1,3.622a2.708,2.708,0,0,1,.556-1.748A2.455,2.455,0,0,1,3.245,1H5.867A2.4,2.4,0,0,1,8.251,3.066a8.706,8.706,0,0,0,.477,2.066,2.519,2.519,0,0,1-.556,2.542l-.556.556a12.329,12.329,0,0,0,3.655,3.655l.556-.556a2.482,2.482,0,0,1,2.542-.556,8.706,8.706,0,0,0,2.066.477A2.4,2.4,0,0,1,18.5,13.633v2.384a2.164,2.164,0,0,1-.715,1.668,2.648,2.648,0,0,1-1.668.715ZM5.867,2.589H3.484a.981.981,0,0,0-.636.318,1.148,1.148,0,0,0-.159.556,14.945,14.945,0,0,0,2.3,6.515,14.5,14.5,0,0,0,4.529,4.529,14.945,14.945,0,0,0,6.515,2.3.782.782,0,0,0,.636-.238.721.721,0,0,0,.238-.556V13.633h0a.845.845,0,0,0-.715-.795,8.848,8.848,0,0,1-2.384-.636.866.866,0,0,0-.874.159l-1.033,1.033a.845.845,0,0,1-.953.159A13.037,13.037,0,0,1,5.867,8.468a1.044,1.044,0,0,1,.238-.953L7.138,6.482A.924.924,0,0,0,7.3,5.688,13.238,13.238,0,0,1,6.662,3.3.784.784,0,0,0,5.867,2.589Z" transform="translate(-1.1 -1)"/></svg>