<svg xmlns="http://www.w3.org/2000/svg" xmlns:xlink="http://www.w3.org/1999/xlink" width="40.075" height="38.934" viewBox="0 0 40.075 38.934"><defs><style>.a{fill:#fff;}.b{filter:url(#a);}</style><filter id="a" x="0" y="0" width="40.075" height="38.934" filterUnits="userSpaceOnUse"><feOffset dy="3" input="SourceAlpha"/><feGaussianBlur stdDeviation="3" result="b"/><feFlood flood-opacity="0.161"/><feComposite operator="in" in2="b"/><feComposite in="SourceGraphic"/></filter></defs><g class="b" transform="matrix(1, 0, 0, 1, 0, 0)"><path class="a" d="M18.2,22a.9.9,0,0,1-.5-.1l-5.7-3-5.7,3a1.11,1.11,0,0,1-1.1-.1.951.951,0,0,1-.4-1l1.1-6.4L1.3,10A1.015,1.015,0,0,1,1,9a.969.969,0,0,1,.8-.7l6.4-.9,2.9-5.8a1.034,1.034,0,0,1,1.8,0l2.9,5.8,6.4.9c.3,0,.6.3.8.7a.905.905,0,0,1-.3,1l-4.6,4.5,1.1,6.4a.951.951,0,0,1-.4,1A1.268,1.268,0,0,1,18.2,22ZM4.1,10l3.5,3.5a.909.909,0,0,1,.4.8l-.8,4.9,4.4-2.3a.75.75,0,0,1,.9,0l4.4,2.3L16,14.3a1.008,1.008,0,0,1,.3-.9l3.5-3.5-4.9-.7c-.3,0-.6-.3-.8-.5L12,4.3,9.8,8.7a.752.752,0,0,1-.7.5Z" transform="translate(8.04 4.93)"/></g></svg>