<svg xmlns="http://www.w3.org/2000/svg" width="22.075" height="20.934" viewBox="0 0 22.075 20.934"><defs><style>.a{fill:#b4b4b4;}</style></defs><path class="a" d="M18.2,22a.9.9,0,0,1-.5-.1l-5.7-3-5.7,3a1.11,1.11,0,0,1-1.1-.1.951.951,0,0,1-.4-1l1.1-6.4L1.3,10A1.015,1.015,0,0,1,1,9a.969.969,0,0,1,.8-.7l6.4-.9,2.9-5.8a1.034,1.034,0,0,1,1.8,0l2.9,5.8,6.4.9c.3,0,.6.3.8.7a.905.905,0,0,1-.3,1l-4.6,4.5,1.1,6.4a.951.951,0,0,1-.4,1A1.268,1.268,0,0,1,18.2,22ZM4.1,10l3.5,3.5a.909.909,0,0,1,.4.8l-.8,4.9,4.4-2.3a.75.75,0,0,1,.9,0l4.4,2.3L16,14.3a1.008,1.008,0,0,1,.3-.9l3.5-3.5-4.9-.7c-.3,0-.6-.3-.8-.5L12,4.3,9.8,8.7a.752.752,0,0,1-.7.5Z" transform="translate(-0.963 -1.075)"/></svg>