<svg xmlns="http://www.w3.org/2000/svg" xmlns:xlink="http://www.w3.org/1999/xlink" width="42.11" height="40.937" viewBox="0 0 42.11 40.937"><defs><style>.a{fill:#fdd604;stroke:#fff;stroke-width:2px;}.b{filter:url(#a);}</style><filter id="a" x="0" y="0" width="42.11" height="40.937" filterUnits="userSpaceOnUse"><feOffset dy="3" input="SourceAlpha"/><feGaussianBlur stdDeviation="3" result="b"/><feFlood flood-opacity="0.161"/><feComposite operator="in" in2="b"/><feComposite in="SourceGraphic"/></filter></defs><g class="b" transform="matrix(1, 0, 0, 1, 0, 0)"><path class="a" d="M18.2,22a.9.9,0,0,1-.5-.1l-5.7-3-5.7,3a1.11,1.11,0,0,1-1.1-.1.951.951,0,0,1-.4-1l1.1-6.4L1.3,10A1.015,1.015,0,0,1,1,9a.969.969,0,0,1,.8-.7l6.4-.9,2.9-5.8a1.034,1.034,0,0,1,1.8,0l2.9,5.8,6.4.9c.3,0,.6.3.8.7a.905.905,0,0,1-.3,1l-4.6,4.5,1.1,6.4a.951.951,0,0,1-.4,1A1.268,1.268,0,0,1,18.2,22Z" transform="translate(9.06 5.93)"/></g></svg>